<?xml version="1.0" encoding="UTF-8"?>
<svg version="1.1" xmlns="http://www.w3.org/2000/svg" width="96" height="96">
<path d="M0 0 C14.52 0 29.04 0 44 0 C50.0625 10.75 50.0625 10.75 52.01611328 14.23120117 C55.63849954 20.67840029 55.63849954 20.67840029 59.4921875 26.98828125 C60.13414063 28.00277344 60.77609375 29.01726563 61.4375 30.0625 C62.27087891 31.31740234 62.27087891 31.31740234 63.12109375 32.59765625 C64.36570556 35.99959519 63.30217991 37.66658224 62 41 C61.01216406 42.8909384 59.97011082 44.75429199 58.8828125 46.58984375 C58.27566406 47.62173828 57.66851562 48.65363281 57.04296875 49.71679688 C56.41003906 50.77962891 55.77710937 51.84246094 55.125 52.9375 C53.87741846 55.05067162 52.63001796 57.16395014 51.3828125 59.27734375 C50.82996582 60.20796631 50.27711914 61.13858887 49.70751953 62.09741211 C47.7757345 65.3812257 45.89023239 68.69209332 44 72 C29.48 72 14.96 72 0 72 C-6.625 60.125 -6.625 60.125 -8.67431641 56.44580078 C-9.22780762 55.45563965 -9.78129883 54.46547852 -10.3515625 53.4453125 C-10.95645508 52.35637695 -11.56134766 51.26744141 -12.18457031 50.14550781 C-13.88381644 47.20130568 -15.7165777 44.39224162 -17.5859375 41.5546875 C-20.04810492 37.44748758 -20.04810492 37.44748758 -19.6640625 33.875 C-19.11492188 32.92625 -18.56578125 31.9775 -18 31 C-17.6709668 30.39800781 -17.34193359 29.79601562 -17.00292969 29.17578125 C-15.84166466 27.08529884 -14.61750413 25.04314508 -13.375 23 C-8.79985245 15.39436886 -4.40677928 7.71186373 0 0 Z " fill="#0E47A1" transform="translate(26,12)"/>
<path d="M0 0 C0.99 0.66 1.98 1.32 3 2 C3 2.66 3 3.32 3 4 C0.03 3.67 -2.94 3.34 -6 3 C-6 4.65 -6 6.3 -6 8 C-1.71 8.99 2.58 9.98 7 11 C7 7.37 7 3.74 7 0 C8.32 0 9.64 0 11 0 C11.99 2.97 12.98 5.94 14 9 C15.32 6.03 16.64 3.06 18 0 C19.32 0 20.64 0 22 0 C22 3.63 22 7.26 22 11 C27.28 11 32.56 11 38 11 C37.10187866 15.4906067 36.24606404 17.68215176 33.98046875 21.4921875 C33.37009766 22.52730469 32.75972656 23.56242187 32.13085938 24.62890625 C31.48955078 25.70011719 30.84824219 26.77132812 30.1875 27.875 C28.93083767 29.99730589 27.67432345 32.11969949 26.41796875 34.2421875 C25.57915161 35.64766846 25.57915161 35.64766846 24.72338867 37.08154297 C22.78247634 40.36836348 20.89381697 43.68582031 19 47 C5.14 47 -8.72 47 -23 47 C-21.5832435 42.74973049 -20.60500868 40.02616857 -18.36328125 36.3984375 C-17.86892578 35.57859375 -17.37457031 34.75875 -16.86523438 33.9140625 C-15.82340662 32.21044479 -14.77645832 30.50994872 -13.72460938 28.8125 C-13.23412109 27.99523437 -12.74363281 27.17796875 -12.23828125 26.3359375 C-11.78493408 25.59907715 -11.33158691 24.8622168 -10.86450195 24.10302734 C-9.83843183 21.6069618 -10.07882396 20.48903805 -11 18 C-7.29263464 16.76421155 -4.81772071 17.37528206 -1 18 C-0.34 18 0.32 18 1 18 C1 16.68 1 15.36 1 14 C0.113125 13.7525 -0.77375 13.505 -1.6875 13.25 C-5.19705131 11.92564102 -7.3879788 10.68884535 -10 8 C-10.5625 5.4375 -10.5625 5.4375 -10 3 C-7.02226725 -0.3213173 -4.30709925 -0.45820205 0 0 Z " fill="#5A6ABF" transform="translate(51,37)"/>
<path d="M0 0 C0.66 0 1.32 0 2 0 C2.53572632 0.95084473 2.53572632 0.95084473 3.08227539 1.92089844 C4.74143183 4.86445099 6.40201624 7.80719602 8.0625 10.75 C8.95026123 12.32624146 8.95026123 12.32624146 9.85595703 13.93432617 C13.47720899 20.35120054 17.15849082 26.71461188 21.0234375 32.98828125 C21.34570312 33.65214844 21.66796875 34.31601562 22 35 C21.505 35.99 21.505 35.99 21 37 C15.72 36.67 10.44 36.34 5 36 C5 32.37 5 28.74 5 25 C3.68 25 2.36 25 1 25 C0.01 28.63 -0.98 32.26 -2 36 C-4.3129482 33.6870518 -4.49580975 32.52095125 -5.125 29.375 C-5.29257812 28.55773437 -5.46015625 27.74046875 -5.6328125 26.8984375 C-5.75398438 26.27195312 -5.87515625 25.64546875 -6 25 C-7.32 25 -8.64 25 -10 25 C-10 28.63 -10 32.26 -10 36 C-19.10714286 35.19642857 -19.10714286 35.19642857 -23 33 C-23 31.35 -23 29.7 -23 28 C-20.03 28.33 -17.06 28.66 -14 29 C-14.33 28.01 -14.66 27.02 -15 26 C-13.84423828 23.48803711 -13.84423828 23.48803711 -12.0703125 20.52734375 C-11.43996094 19.46322266 -10.80960938 18.39910156 -10.16015625 17.30273438 C-9.48855469 16.19220703 -8.81695312 15.08167969 -8.125 13.9375 C-6.81493964 11.73837926 -5.5050358 9.53916526 -4.1953125 7.33984375 C-3.60766113 6.36394287 -3.02000977 5.38804199 -2.41455078 4.38256836 C-1.56306823 2.94839194 -0.74590677 1.49181354 0 0 Z " fill="#3849AB" transform="translate(68,12)"/>
<path d="M0 0 C1.32 0 2.64 0 4 0 C4.99 2.97 5.98 5.94 7 9 C8.32 6.03 9.64 3.06 11 0 C12.32 0 13.64 0 15 0 C15 7.26 15 14.52 15 22 C14.01 22 13.02 22 12 22 C11.67 18.04 11.34 14.08 11 10 C10.34 11.98 9.68 13.96 9 16 C8.01 16 7.02 16 6 16 C5.34 14.02 4.68 12.04 4 10 C3.67 13.96 3.34 17.92 3 22 C2.01 22 1.02 22 0 22 C0 14.74 0 7.48 0 0 Z " fill="#E9EBF6" transform="translate(58,37)"/>
<path d="M0 0 C1.65 0.33 3.3 0.66 5 1 C6.00486895 3.95670218 7.00306024 6.91561577 8 9.875 C8.28617188 10.71675781 8.57234375 11.55851562 8.8671875 12.42578125 C9.13789062 13.23144531 9.40859375 14.03710938 9.6875 14.8671875 C10.06455078 15.98262939 10.06455078 15.98262939 10.44921875 17.12060547 C11 19 11 19 11 21 C9.68 20.67 8.36 20.34 7 20 C6.67 18.68 6.34 17.36 6 16 C3.36 16 0.72 16 -2 16 C-2.33 17.98 -2.66 19.96 -3 22 C-3.99 22 -4.98 22 -6 22 C-5.40421223 16.73378394 -4.18691204 12.05591981 -2.4375 7.0625 C-2.20353516 6.37865234 -1.96957031 5.69480469 -1.72851562 4.99023438 C-1.15788171 3.32491499 -0.57972902 1.66217507 0 0 Z " fill="#E3EAF4" transform="translate(28,37)"/>
<path d="M0 0 C0.99 0.66 1.98 1.32 3 2 C3 2.66 3 3.32 3 4 C0.03 3.67 -2.94 3.34 -6 3 C-6 4.65 -6 6.3 -6 8 C-4.906875 8.268125 -3.81375 8.53625 -2.6875 8.8125 C2.46501129 10.4717833 2.46501129 10.4717833 4 13 C4.4375 16 4.4375 16 4 19 C1.67097984 21.79482419 0.12036325 21.98495459 -3.5 22.4375 C-7.48536323 21.9393296 -8.57526306 21.10366328 -11 18 C-7.29263464 16.76421155 -4.81772071 17.37528206 -1 18 C-0.34 18 0.32 18 1 18 C1 16.68 1 15.36 1 14 C0.113125 13.7525 -0.77375 13.505 -1.6875 13.25 C-5.19705131 11.92564102 -7.3879788 10.68884535 -10 8 C-10.5625 5.4375 -10.5625 5.4375 -10 3 C-7.02226725 -0.3213173 -4.30709925 -0.45820205 0 0 Z " fill="#EDF0F8" transform="translate(51,37)"/>
<path d="M0 0 C1.65 0.33 3.3 0.66 5 1 C5.33 2.65 5.66 4.3 6 6 C5.34 6 4.68 6 4 6 C4.33 8.31 4.66 10.62 5 13 C3.35 13 1.7 13 0 13 C-0.144375 12.21625 -0.28875 11.4325 -0.4375 10.625 C-0.87798925 8.03578982 -0.87798925 8.03578982 -2 6 C-1.39421747 3.98072489 -0.73080266 1.97746603 0 0 Z " fill="#DFE7F2" transform="translate(28,37)"/>
<path d="M0 0 C1.32 0 2.64 0 4 0 C4.33 1.65 4.66 3.3 5 5 C4.01 5 3.02 5 2 5 C2 10.28 2 15.56 2 21 C1.34 21 0.68 21 0 21 C0 14.07 0 7.14 0 0 Z " fill="#F4F5FA" transform="translate(58,37)"/>
<path d="M0 0 C2.475 0.99 2.475 0.99 5 2 C5 3.32 5 4.64 5 6 C1.625 6.625 1.625 6.625 -2 7 C-2.66 6.34 -3.32 5.68 -4 5 C-3.34 5 -2.68 5 -2 5 C-1.34 3.35 -0.68 1.7 0 0 Z " fill="#6070C1" transform="translate(47,49)"/>
<path d="M0 0 C2.29633824 3.44450737 2.54016485 5.93812283 3 10 C1.35 10 -0.3 10 -2 10 C-1.125 2.25 -1.125 2.25 0 0 Z " fill="#2E60AE" transform="translate(30,40)"/>
<path d="M0 0 C1.98 0 3.96 0 6 0 C6.33 0.66 6.66 1.32 7 2 C6.01 3.485 6.01 3.485 5 5 C2.375 5.1875 2.375 5.1875 0 5 C0 3.35 0 1.7 0 0 Z " fill="#184EA5" transform="translate(45,40)"/>
<path d="M0 0 C1.65 0 3.3 0 5 0 C5 2.97 5 5.94 5 9 C4.01 8.67 3.02 8.34 2 8 C1.26953125 6.15234375 1.26953125 6.15234375 0.8125 3.9375 C0.65394531 3.20402344 0.49539062 2.47054687 0.33203125 1.71484375 C0.22246094 1.14894531 0.11289062 0.58304688 0 0 Z " fill="#6D7AC6" transform="translate(53,48)"/>
<path d="M0 0 C0.33 0 0.66 0 1 0 C1 4.95 1 9.9 1 15 C0.67 15 0.34 15 0 15 C-0.144375 13.906875 -0.28875 12.81375 -0.4375 11.6875 C-0.88288104 8.06877013 -0.88288104 8.06877013 -2 5 C-1.0625 2.3125 -1.0625 2.3125 0 0 Z " fill="#6572C1" transform="translate(69,44)"/>
<path d="M0 0 C0.33 0.99 0.66 1.98 1 3 C0.34 3 -0.32 3 -1 3 C-1 3.99 -1 4.98 -1 6 C-1.99 6.33 -2.98 6.66 -4 7 C-3.67 5.02 -3.34 3.04 -3 1 C-2.01 0.67 -1.02 0.34 0 0 Z " fill="#DADDEF" transform="translate(70,41)"/>
</svg>
